<svg version="1.1" id="Layer_1" xmlns="http://www.w3.org/2000/svg" xmlns:xlink="http://www.w3.org/1999/xlink" x="0px" y="0px"
	 width="100%" viewBox="0 0 260 156" enable-background="new 0 0 260 156" xml:space="preserve">
<path fill="#006A4E" opacity="1.000000" stroke="none" 
	d="
M149.000000,157.000000 
	C99.333336,157.000000 50.166672,157.000000 1.000007,157.000000 
	C1.000004,105.000008 1.000004,53.000011 1.000002,1.000014 
	C87.666656,1.000009 174.333313,1.000009 261.000000,1.000005 
	C261.000000,52.999985 261.000000,104.999969 261.000000,156.999969 
	C223.833328,157.000000 186.666672,157.000000 149.000000,157.000000 
M88.605072,36.051525 
	C70.409271,49.553589 62.938114,67.501396 67.123413,89.790253 
	C71.894974,115.201256 95.629532,132.606766 122.466148,130.909714 
	C146.683731,129.378281 168.161911,108.310005 169.834885,83.959854 
	C171.311630,62.465740 163.000549,45.326168 144.464264,34.324337 
	C126.124222,23.439001 107.368263,24.361185 88.605072,36.051525 
z"/>
<path fill="#F32A41" opacity="1.000000" stroke="none" 
	d="
M88.906326,35.850597 
	C107.368263,24.361185 126.124222,23.439001 144.464264,34.324337 
	C163.000549,45.326168 171.311630,62.465740 169.834885,83.959854 
	C168.161911,108.310005 146.683731,129.378281 122.466148,130.909714 
	C95.629532,132.606766 71.894974,115.201256 67.123413,89.790253 
	C62.938114,67.501396 70.409271,49.553589 88.906326,35.850597 
z"/>
</svg>