<svg version="1.1" id="Layer_1" xmlns="http://www.w3.org/2000/svg" xmlns:xlink="http://www.w3.org/1999/xlink" x="0px" y="0px"
	 width="100%" viewBox="0 0 290 174" enable-background="new 0 0 290 174" xml:space="preserve">
<path fill="#C8102E" opacity="1.000000" stroke="none" 
	d="
M130.000000,1.000000 
	C140.354233,1.000000 150.708450,1.000000 161.656097,1.203570 
	C162.453995,1.658006 162.700974,1.855826 163.094727,2.459116 
	C163.129425,24.944944 163.059830,46.972260 162.871979,69.114822 
	C162.605988,69.555977 162.709778,69.817749 163.240723,70.145081 
	C163.638657,70.466476 163.827988,70.686523 164.089600,71.063377 
	C164.194839,71.191826 164.620880,71.307541 164.620880,71.307541 
	C164.620880,71.307541 165.000427,71.009834 165.458954,70.905441 
	C199.145264,70.789009 232.373077,70.760780 265.600861,70.776512 
	C273.733765,70.780357 281.866577,70.928062 290.127808,71.211060 
	C290.455536,71.669861 290.703461,71.865692 291.000000,72.000000 
	C291.000000,82.354225 291.000000,92.708458 290.795715,103.655258 
	C290.341553,104.453613 290.144196,104.701271 289.540863,105.095253 
	C255.854568,105.211708 222.626770,105.239929 189.398987,105.224129 
	C181.266113,105.220261 173.133316,105.072311 164.885193,104.872353 
	C164.443970,104.606392 164.182190,104.710213 163.855133,105.241257 
	C163.534195,105.639183 163.314178,105.828285 162.937164,106.089485 
	C162.593582,106.494324 162.654251,106.762909 163.095139,107.458969 
	C163.130020,129.944748 163.060455,151.972046 162.789581,174.127853 
	C162.332764,174.457214 162.136673,174.705093 162.000000,175.000000 
	C151.645767,175.000000 141.291550,175.000000 130.343903,174.796417 
	C129.545975,174.341980 129.298996,174.144165 128.905212,173.540848 
	C128.870499,151.055023 128.940109,129.027725 129.128006,106.885193 
	C129.393982,106.444023 129.290176,106.182243 128.759247,105.854935 
	C128.361328,105.533562 128.171997,105.313515 127.910400,104.936676 
	C127.505630,104.593262 127.237106,104.653915 126.541077,105.094589 
	C92.854774,105.211029 59.626968,105.239258 26.399185,105.223534 
	C18.266283,105.219681 10.133449,105.071976 1.872218,104.788956 
	C1.544484,104.330170 1.296533,104.134331 1.000000,104.000000 
	C1.000000,93.645775 1.000000,83.291542 1.204256,72.344772 
	C1.658408,71.546471 1.855783,71.298836 2.459128,70.904930 
	C36.145412,70.788513 69.373207,70.760284 102.600983,70.776085 
	C110.733864,70.779953 118.866684,70.927864 127.114807,71.127792 
	C127.230080,71.246033 127.670837,71.278954 127.670837,71.278954 
	C127.670837,71.278954 128.015411,70.934624 128.144928,70.758957 
	C128.466019,70.361031 128.686050,70.171844 129.063004,69.910484 
	C129.406525,69.505661 129.345856,69.237083 128.905045,68.541031 
	C128.870163,46.055229 128.939713,24.027927 129.210541,1.872111 
	C129.667297,1.542748 129.863358,1.294881 130.000000,1.000000 
z"/>
<path fill="#FDFAFB" opacity="1.000000" stroke="none" 
	d="
M163.065674,105.984245 
	C163.314178,105.828285 163.534195,105.639183 164.113251,105.278580 
	C164.667343,105.090347 164.833908,105.040482 165.000473,104.990608 
	C173.133316,105.072311 181.266113,105.220261 189.398987,105.224129 
	C222.626770,105.239929 255.854568,105.211708 289.790405,105.165573 
	C290.665649,105.087624 290.832825,105.043808 291.000000,105.000000 
	C291.000000,108.692909 291.000000,112.385818 290.531342,116.541969 
	C269.923798,117.005211 249.784897,117.005211 229.646011,117.005211 
	C229.621490,117.256172 229.596970,117.507141 229.572449,117.758102 
	C230.403091,118.161423 231.233749,118.564751 232.273636,119.234116 
	C248.811844,129.323135 265.125122,139.172363 281.483734,148.945770 
	C284.563171,150.785568 287.823273,152.323029 291.000000,154.000000 
	C291.000000,156.041672 291.000000,158.083328 290.639893,160.571228 
	C281.289886,155.653732 272.294464,150.299225 263.311523,144.923798 
	C253.844879,139.258926 244.389130,133.575836 234.930664,127.897278 
	C229.613647,124.705109 224.647690,120.115105 218.893784,118.679962 
	C212.439285,117.070091 205.273987,118.310005 197.171509,118.310005 
	C199.400375,119.818024 200.656448,120.756622 201.993973,121.559517 
	C222.937668,134.131699 243.919968,146.639893 264.829987,159.267761 
	C273.298431,164.381973 281.614563,169.748367 290.000000,175.000000 
	C278.979095,175.000000 267.958221,175.000000 256.436768,174.650665 
	C229.617538,158.599045 203.298843,142.896729 176.669586,126.949127 
	C176.093216,126.581238 175.827408,126.458649 175.561615,126.336060 
	C175.378418,126.748207 175.035843,127.160049 175.035034,127.572556 
	C175.003876,143.381653 175.004013,159.190842 175.000000,175.000000 
	C171.307098,175.000000 167.614182,175.000000 163.526398,174.749207 
	C163.084625,174.332062 163.037750,174.165710 162.990875,173.999344 
	C163.060455,151.972046 163.130020,129.944748 163.169952,107.209038 
	C163.115417,106.328491 163.090546,106.156372 163.065674,105.984245 
z"/>
<path fill="#FDFAFB" opacity="1.000000" stroke="none" 
	d="
M126.999527,71.009544 
	C118.866684,70.927864 110.733864,70.779953 102.600983,70.776085 
	C69.373207,70.760284 36.145412,70.788513 2.209589,70.834641 
	C1.334370,70.912498 1.167185,70.956245 1.000000,71.000000 
	C1.000000,67.307091 1.000000,63.614182 1.468651,59.457947 
	C22.076086,58.994625 42.214870,58.994625 62.353657,58.994625 
	C62.377945,58.743542 62.402233,58.492462 62.426521,58.241379 
	C61.596237,57.837662 60.765957,57.433941 59.725945,56.764656 
	C43.188488,46.674683 26.876627,36.823715 10.518935,27.049446 
	C7.439662,25.209478 4.177675,23.675289 1.000000,22.000000 
	C1.000000,19.958334 1.000000,17.916666 1.356388,15.427055 
	C23.923996,28.293030 46.350002,41.267395 68.228722,55.106960 
	C75.780205,59.883720 83.425903,58.629948 91.228516,58.927948 
	C91.848358,58.951622 92.863312,58.326286 93.029182,57.794857 
	C93.192757,57.270794 92.688087,56.242226 92.165489,55.856388 
	C90.702293,54.776112 89.091118,53.891777 87.515762,52.968647 
	C78.387100,47.619400 69.214439,42.344131 60.127956,36.924309 
	C47.174580,29.198000 34.238838,21.440081 21.382992,13.553153 
	C14.823652,9.529068 8.454899,5.194325 2.000000,1.000000 
	C13.020894,1.000000 24.041788,1.000000 35.564995,1.348916 
	C62.384880,17.400404 88.702454,33.102978 115.330559,49.050808 
	C115.906898,49.418606 116.172699,49.541145 116.438499,49.663689 
	C116.621613,49.251472 116.964050,48.839573 116.964859,48.426998 
	C116.996056,32.618038 116.995949,16.809015 117.000000,1.000000 
	C120.692909,1.000000 124.385826,1.000000 128.473724,1.250786 
	C128.915543,1.667922 128.962402,1.834272 129.009277,2.000623 
	C128.939713,24.027927 128.870163,46.055229 128.830261,68.790955 
	C128.884781,69.671501 128.909653,69.843613 128.934509,70.015717 
	C128.686050,70.171844 128.466019,70.361031 127.886810,70.721649 
	C127.332649,70.909851 127.166092,70.959702 126.999527,71.009544 
z"/>
<path fill="#FDFAFB" opacity="1.000000" stroke="none" 
	d="
M129.009735,107.000435 
	C128.940109,129.027725 128.870499,151.055023 128.834961,173.790375 
	C128.912674,174.665604 128.956345,174.832794 129.000000,175.000000 
	C125.307091,175.000000 121.614182,175.000000 117.457077,174.531357 
	C116.992569,159.131882 117.014984,144.200806 116.869453,129.271393 
	C116.865555,128.871429 118.968208,124.785034 114.692337,127.245621 
	C91.751884,140.861771 69.135681,154.400986 46.559830,168.007141 
	C42.947243,170.184387 39.515392,172.661499 36.000000,175.000000 
	C32.307091,175.000000 28.614182,175.000000 24.639448,174.707581 
	C54.972225,156.064758 85.586830,137.714355 116.201431,119.363945 
	C116.062851,118.911903 115.924271,118.459862 115.785690,118.007820 
	C111.230286,118.007820 106.610229,118.481743 102.138054,117.871643 
	C97.851631,117.286896 94.655685,118.809929 91.245705,120.871513 
	C73.352730,131.689133 55.353020,142.330200 37.460365,153.148346 
	C25.579475,160.331726 13.816022,167.709335 1.999998,175.000000 
	C1.666668,174.027145 1.060600,173.058685 1.044919,172.080734 
	C0.953314,166.367661 1.000000,160.652374 1.358870,154.526459 
	C21.122257,142.400421 40.526775,130.685760 60.279053,118.927811 
	C61.218185,118.470924 61.809563,118.057304 63.321262,117.000000 
	C41.824280,117.000000 21.412140,117.000000 1.000000,117.000000 
	C1.000000,113.307091 1.000000,109.614182 1.250797,105.526093 
	C1.667924,105.084084 1.834254,105.037247 2.000584,104.990402 
	C10.133449,105.071976 18.266283,105.219681 26.399185,105.223534 
	C59.626968,105.239258 92.854774,105.211029 126.790985,105.169312 
	C127.671471,105.114792 127.843559,105.089951 128.015640,105.065109 
	C128.171997,105.313515 128.361328,105.533562 128.721954,106.113022 
	C128.910110,106.667336 128.959915,106.833885 129.009735,107.000435 
z"/>
<path fill="#FDFAFB" opacity="1.000000" stroke="none" 
	d="
M162.990234,68.999573 
	C163.059830,46.972260 163.129425,24.944944 163.164978,2.209599 
	C163.087280,1.334378 163.043640,1.167189 163.000000,1.000000 
	C166.692902,1.000000 170.385818,1.000000 174.542938,1.468645 
	C175.007462,16.868092 174.985046,31.799112 175.130615,46.728497 
	C175.134506,47.128181 173.031403,51.214985 177.307663,48.754288 
	C198.254089,36.323792 218.882843,23.981184 239.458511,11.550683 
	C245.054565,8.169903 250.490555,4.524149 256.000000,1.000002 
	C259.692902,1.000000 263.385834,1.000000 267.360779,1.292561 
	C236.628510,20.232174 205.441605,38.600864 174.977188,58.231941 
	C178.862473,58.992321 182.372818,58.709072 185.819901,59.055382 
	C191.733826,59.649529 196.642563,57.778046 201.643936,54.690823 
	C219.153992,43.882267 236.930267,33.506104 254.537720,22.853779 
	C266.417419,15.666657 278.183228,8.291197 290.000000,0.999990 
	C290.333344,1.972840 290.939423,2.941316 290.955109,3.919256 
	C291.046692,9.632339 291.000000,15.347631 290.641174,21.473507 
	C270.877930,33.600098 251.473541,45.315353 231.721863,57.076145 
	C230.782990,57.533661 230.191391,57.945648 228.677353,59.000000 
	C250.175949,59.000000 270.587982,59.000000 291.000000,59.000000 
	C291.000000,62.692909 291.000000,66.385818 290.749207,70.473923 
	C290.332092,70.915962 290.165771,70.962791 289.999451,71.009628 
	C281.866577,70.928062 273.733765,70.780357 265.600861,70.776512 
	C232.373077,70.760780 199.145264,70.789009 165.209045,70.830734 
	C164.328552,70.885254 164.156464,70.910095 163.984375,70.934929 
	C163.827988,70.686523 163.638657,70.466476 163.277985,69.886993 
	C163.089844,69.332672 163.040039,69.166122 162.990234,68.999573 
z"/>
<path fill="#022169" opacity="1.000000" stroke="none" 
	d="
M115.020020,48.805550 
	C88.702454,33.102978 62.384880,17.400404 36.033653,1.348916 
	C62.354229,1.000000 88.708458,1.000000 115.531052,1.468657 
	C115.999298,15.474194 116.040749,29.011333 115.955345,42.547676 
	C115.942169,44.635521 115.346375,46.719685 115.020020,48.805550 
z"/>
<path fill="#022169" opacity="1.000000" stroke="none" 
	d="
M255.531342,1.000002 
	C250.490555,4.524149 245.054565,8.169903 239.458511,11.550683 
	C218.882843,23.981184 198.254089,36.323792 177.126801,48.390930 
	C176.405746,46.126572 176.035004,44.171371 176.027695,42.214821 
	C175.976501,28.476704 176.000214,14.738307 176.000000,1.000000 
	C202.354233,1.000000 228.708450,1.000000 255.531342,1.000002 
z"/>
<path fill="#022169" opacity="1.000000" stroke="none" 
	d="
M176.980133,127.194427 
	C203.298843,142.896729 229.617538,158.599045 255.968124,174.650665 
	C229.645767,175.000000 203.291550,175.000000 176.468918,174.531342 
	C176.000595,160.525772 175.959076,146.988602 176.044479,133.452225 
	C176.057632,131.364410 176.653671,129.280273 176.980133,127.194427 
z"/>
<path fill="#022169" opacity="1.000000" stroke="none" 
	d="
M36.468658,175.000000 
	C39.515392,172.661499 42.947243,170.184387 46.559830,168.007141 
	C69.135681,154.400986 91.751884,140.861771 114.873184,127.608971 
	C115.594124,129.873383 115.964775,131.828598 115.972076,133.785156 
	C116.023346,147.523270 115.999695,161.261688 116.000000,175.000000 
	C89.645775,175.000000 63.291546,175.000000 36.468658,175.000000 
z"/>
<path fill="#C8122F" opacity="1.000000" stroke="none" 
	d="
M289.531433,0.999994 
	C278.183228,8.291197 266.417419,15.666657 254.537720,22.853779 
	C236.930267,33.506104 219.153992,43.882267 201.643936,54.690823 
	C196.642563,57.778046 191.733826,59.649529 185.819901,59.055382 
	C182.372818,58.709072 178.862473,58.992321 174.977188,58.231941 
	C205.441605,38.600864 236.628510,20.232174 267.821411,1.292561 
	C275.020966,1.000000 282.041901,1.000000 289.531433,0.999994 
z"/>
<path fill="#C8122F" opacity="1.000000" stroke="none" 
	d="
M2.468575,175.000000 
	C13.816022,167.709335 25.579475,160.331726 37.460365,153.148346 
	C55.353020,142.330200 73.352730,131.689133 91.245705,120.871513 
	C94.655685,118.809929 97.851631,117.286896 102.138054,117.871643 
	C106.610229,118.481743 111.230286,118.007820 115.785690,118.007820 
	C115.924271,118.459862 116.062851,118.911903 116.201431,119.363945 
	C85.586830,137.714355 54.972225,156.064758 24.178812,174.707581 
	C16.979052,175.000000 9.958103,175.000000 2.468575,175.000000 
z"/>
<path fill="#03216A" opacity="1.000000" stroke="none" 
	d="
M1.000000,22.468658 
	C4.177675,23.675289 7.439662,25.209478 10.518935,27.049446 
	C26.876627,36.823715 43.188488,46.674683 59.352188,56.941311 
	C57.224648,57.588009 55.261616,57.964695 53.297569,57.970032 
	C35.865147,58.017384 18.432547,57.998989 1.000000,58.000000 
	C1.000000,46.312439 1.000000,34.624878 1.000000,22.468658 
z"/>
<path fill="#03226A" opacity="1.000000" stroke="none" 
	d="
M232.069122,57.030609 
	C251.473541,45.315353 270.877930,33.600098 290.641174,21.942419 
	C291.000000,33.687561 291.000000,45.375122 290.531342,57.530312 
	C272.830353,57.997540 255.597855,58.030060 238.365860,57.954109 
	C236.265640,57.944855 234.167969,57.352650 232.069122,57.030609 
z"/>
<path fill="#03216A" opacity="1.000000" stroke="none" 
	d="
M59.931290,118.971077 
	C40.526775,130.685760 21.122257,142.400421 1.358870,154.057556 
	C1.000000,142.312439 1.000000,130.624878 1.468657,118.469635 
	C19.170053,118.002327 36.402939,117.969711 53.635345,118.045784 
	C55.735313,118.055054 57.832703,118.648415 59.931290,118.971077 
z"/>
<path fill="#03226A" opacity="1.000000" stroke="none" 
	d="
M291.000000,153.531342 
	C287.823273,152.323029 284.563171,150.785568 281.483734,148.945770 
	C265.125122,139.172363 248.811844,129.323135 232.648041,119.058823 
	C234.776596,118.412712 236.739502,118.035484 238.703415,118.030136 
	C256.135498,117.982674 273.567780,118.001053 291.000000,118.000000 
	C291.000000,129.687561 291.000000,141.375122 291.000000,153.531342 
z"/>
<path fill="#C8122F" opacity="1.000000" stroke="none" 
	d="
M1.500000,1.000000 
	C8.454899,5.194325 14.823652,9.529068 21.382992,13.553153 
	C34.238838,21.440081 47.174580,29.198000 60.127956,36.924309 
	C69.214439,42.344131 78.387100,47.619400 87.515762,52.968647 
	C89.091118,53.891777 90.702293,54.776112 92.165489,55.856388 
	C92.688087,56.242226 93.192757,57.270794 93.029182,57.794857 
	C92.863312,58.326286 91.848358,58.951622 91.228516,58.927948 
	C83.425903,58.629948 75.780205,59.883720 68.228722,55.106960 
	C46.350002,41.267395 23.923996,28.293030 1.356388,14.989555 
	C1.000000,10.333333 1.000000,5.666667 1.500000,1.000000 
z"/>
<path fill="#C8122F" opacity="1.000000" stroke="none" 
	d="
M290.500000,175.000000 
	C281.614563,169.748367 273.298431,164.381973 264.829987,159.267761 
	C243.919968,146.639893 222.937668,134.131699 201.993973,121.559517 
	C200.656448,120.756622 199.400375,119.818024 197.171509,118.310005 
	C205.273987,118.310005 212.439285,117.070091 218.893784,118.679962 
	C224.647690,120.115105 229.613647,124.705109 234.930664,127.897278 
	C244.389130,133.575836 253.844879,139.258926 263.311523,144.923798 
	C272.294464,150.299225 281.289886,155.653732 290.639893,161.008728 
	C291.000000,165.666672 291.000000,170.333328 290.500000,175.000000 
z"/>
<path fill="#01015A" opacity="1.000000" stroke="none" 
	d="
M60.279049,118.927811 
	C57.832703,118.648415 55.735313,118.055054 53.635345,118.045784 
	C36.402939,117.969711 19.170053,118.002327 1.468657,118.000977 
	C1.000000,118.000000 1.000000,117.500000 1.000000,117.250000 
	C21.412140,117.000000 41.824280,117.000000 63.321262,117.000000 
	C61.809563,118.057304 61.218185,118.470924 60.279049,118.927811 
z"/>
<path fill="#01015A" opacity="1.000000" stroke="none" 
	d="
M231.721863,57.076141 
	C234.167969,57.352650 236.265640,57.944855 238.365860,57.954109 
	C255.597855,58.030060 272.830353,57.997540 290.531342,57.998970 
	C291.000000,58.000000 291.000000,58.500000 291.000000,58.750000 
	C270.587982,59.000000 250.175949,59.000000 228.677353,59.000000 
	C230.191391,57.945648 230.782990,57.533661 231.721863,57.076141 
z"/>
<path fill="#01015A" opacity="1.000000" stroke="none" 
	d="
M291.000000,117.750000 
	C273.567780,118.001053 256.135498,117.982674 238.703415,118.030136 
	C236.739502,118.035484 234.776596,118.412712 232.438812,118.792786 
	C231.233749,118.564751 230.403091,118.161423 229.572449,117.758102 
	C229.596970,117.507141 229.621490,117.256172 229.646011,117.005211 
	C249.784897,117.005211 269.923798,117.005211 290.531342,117.002609 
	C291.000000,117.000000 291.000000,117.500000 291.000000,117.750000 
z"/>
<path fill="#01015A" opacity="1.000000" stroke="none" 
	d="
M1.000000,58.250000 
	C18.432547,57.998989 35.865147,58.017384 53.297569,57.970032 
	C55.261616,57.964695 57.224648,57.588009 59.561913,57.206875 
	C60.765957,57.433941 61.596237,57.837662 62.426521,58.241379 
	C62.402233,58.492462 62.377945,58.743542 62.353657,58.994625 
	C42.214870,58.994625 22.076086,58.994625 1.468651,58.997314 
	C1.000000,59.000000 1.000000,58.500000 1.000000,58.250000 
z"/>
<path fill="#000059" opacity="1.000000" stroke="none" 
	d="
M116.250000,175.000000 
	C115.999695,161.261688 116.023346,147.523270 115.972076,133.785156 
	C115.964775,131.828598 115.594124,129.873383 115.210793,127.554199 
	C118.968208,124.785034 116.865555,128.871429 116.869453,129.271393 
	C117.014984,144.200806 116.992569,159.131882 116.996445,174.531357 
	C117.000000,175.000000 116.500000,175.000000 116.250000,175.000000 
z"/>
<path fill="#000059" opacity="1.000000" stroke="none" 
	d="
M176.669586,126.949127 
	C176.653671,129.280273 176.057632,131.364410 176.044479,133.452225 
	C175.959076,146.988602 176.000595,160.525772 176.000259,174.531342 
	C176.000000,175.000000 175.500000,175.000000 175.250000,175.000000 
	C175.004013,159.190842 175.003876,143.381653 175.035034,127.572556 
	C175.035843,127.160049 175.378418,126.748207 175.561615,126.336060 
	C175.827408,126.458649 176.093216,126.581238 176.669586,126.949127 
z"/>
<path fill="#000059" opacity="1.000000" stroke="none" 
	d="
M175.750000,1.000000 
	C176.000214,14.738307 175.976501,28.476704 176.027695,42.214821 
	C176.035004,44.171371 176.405746,46.126572 176.789154,48.445751 
	C173.031403,51.214985 175.134506,47.128181 175.130615,46.728497 
	C174.985046,31.799112 175.007462,16.868092 175.003571,1.468645 
	C175.000000,1.000000 175.500000,1.000000 175.750000,1.000000 
z"/>
<path fill="#000059" opacity="1.000000" stroke="none" 
	d="
M115.330566,49.050808 
	C115.346375,46.719685 115.942169,44.635521 115.955345,42.547676 
	C116.040749,29.011333 115.999298,15.474194 115.999710,1.468657 
	C116.000000,1.000000 116.500000,1.000000 116.750000,1.000000 
	C116.995949,16.809015 116.996056,32.618038 116.964859,48.426998 
	C116.964050,48.839573 116.621613,49.251472 116.438499,49.663689 
	C116.172699,49.541145 115.906898,49.418606 115.330566,49.050808 
z"/>
<path fill="#C50018" opacity="1.000000" stroke="none" 
	d="
M162.789581,174.127853 
	C163.037750,174.165710 163.084625,174.332062 163.065750,174.749207 
	C163.000000,175.000000 162.500000,175.000000 162.250000,175.000000 
	C162.136673,174.705093 162.332764,174.457214 162.789581,174.127853 
z"/>
<path fill="#C50018" opacity="1.000000" stroke="none" 
	d="
M129.250000,175.000000 
	C128.956345,174.832794 128.912674,174.665604 128.939270,174.248901 
	C129.298996,174.144165 129.545975,174.341980 129.875244,174.796417 
	C130.000000,175.000000 129.500000,175.000000 129.250000,175.000000 
z"/>
<path fill="#C50018" opacity="1.000000" stroke="none" 
	d="
M291.000000,104.750000 
	C290.832825,105.043808 290.665649,105.087624 290.248901,105.061127 
	C290.144196,104.701271 290.341553,104.453613 290.795715,104.123917 
	C291.000000,104.000000 291.000000,104.500000 291.000000,104.750000 
z"/>
<path fill="#C50018" opacity="1.000000" stroke="none" 
	d="
M1.872218,104.788956 
	C1.834254,105.037247 1.667924,105.084084 1.250797,105.065460 
	C1.000000,105.000000 1.000000,104.500000 1.000000,104.250000 
	C1.296533,104.134331 1.544484,104.330170 1.872218,104.788956 
z"/>
<path fill="#C50018" opacity="1.000000" stroke="none" 
	d="
M290.127808,71.211067 
	C290.165771,70.962791 290.332092,70.915962 290.749207,70.934563 
	C291.000000,71.000000 291.000000,71.500000 291.000000,71.750000 
	C290.703461,71.865692 290.455536,71.669861 290.127808,71.211067 
z"/>
<path fill="#C50018" opacity="1.000000" stroke="none" 
	d="
M1.000000,71.250000 
	C1.167185,70.956245 1.334370,70.912498 1.751095,70.939041 
	C1.855783,71.298836 1.658408,71.546471 1.204256,71.876114 
	C1.000000,72.000000 1.000000,71.500000 1.000000,71.250000 
z"/>
<path fill="#C50018" opacity="1.000000" stroke="none" 
	d="
M162.750000,1.000000 
	C163.043640,1.167189 163.087280,1.334378 163.060669,1.751083 
	C162.700974,1.855826 162.453995,1.658006 162.124756,1.203570 
	C162.000000,1.000000 162.500000,1.000000 162.750000,1.000000 
z"/>
<path fill="#C50018" opacity="1.000000" stroke="none" 
	d="
M129.210541,1.872111 
	C128.962402,1.834272 128.915543,1.667922 128.934357,1.250786 
	C129.000000,1.000000 129.500000,1.000000 129.750000,1.000000 
	C129.863358,1.294881 129.667297,1.542748 129.210541,1.872111 
z"/>
<path fill="#C50018" opacity="1.000000" stroke="none" 
	d="
M162.937164,106.089485 
	C163.090546,106.156372 163.115417,106.328491 163.065491,106.750549 
	C162.654251,106.762909 162.593582,106.494324 162.937164,106.089485 
z"/>
<path fill="#C50018" opacity="1.000000" stroke="none" 
	d="
M129.128021,106.885193 
	C128.959915,106.833885 128.910110,106.667336 128.897583,106.242706 
	C129.290176,106.182243 129.393982,106.444023 129.128021,106.885193 
z"/>
<path fill="#C50018" opacity="1.000000" stroke="none" 
	d="
M164.885193,104.872353 
	C164.833908,105.040482 164.667343,105.090347 164.242676,105.102890 
	C164.182190,104.710213 164.443970,104.606392 164.885193,104.872353 
z"/>
<path fill="#C50018" opacity="1.000000" stroke="none" 
	d="
M127.910400,104.936676 
	C127.843559,105.089951 127.671471,105.114792 127.249481,105.064911 
	C127.237106,104.653915 127.505630,104.593262 127.910400,104.936676 
z"/>
<path fill="#C50018" opacity="1.000000" stroke="none" 
	d="
M164.089600,71.063377 
	C164.156464,70.910095 164.328552,70.885254 164.750519,70.935127 
	C165.000427,71.009834 164.620880,71.307541 164.620880,71.307541 
	C164.620880,71.307541 164.194839,71.191826 164.089600,71.063377 
z"/>
<path fill="#C50018" opacity="1.000000" stroke="none" 
	d="
M127.114807,71.127792 
	C127.166092,70.959702 127.332649,70.909851 127.757309,70.897316 
	C128.015411,70.934624 127.670837,71.278954 127.670837,71.278954 
	C127.670837,71.278954 127.230080,71.246033 127.114807,71.127792 
z"/>
<path fill="#C50018" opacity="1.000000" stroke="none" 
	d="
M162.871979,69.114822 
	C163.040039,69.166122 163.089844,69.332672 163.102356,69.757301 
	C162.709778,69.817749 162.605988,69.555977 162.871979,69.114822 
z"/>
<path fill="#C50018" opacity="1.000000" stroke="none" 
	d="
M129.063004,69.910484 
	C128.909653,69.843613 128.884781,69.671501 128.934692,69.249458 
	C129.345856,69.237083 129.406525,69.505661 129.063004,69.910484 
z"/>
</svg>